<?xml version="1.0" encoding="UTF-8"?>
<svg width="1200pt" height="1200pt" version="1.1" viewBox="0 0 1200 1200" xmlns="http://www.w3.org/2000/svg">
 <path d="m343.92 830.68c7.0312-7.0312 18.422-7.0312 25.453 0s7.0312 18.422 0 25.453l-174.52 174.52c-7.0312 7.0312-18.422 7.0312-25.453 0s-7.0312-18.422 0-25.453zm150.61-30.188-94.969-94.969-24.656 24.656 94.969 94.969zm329.16-107.44c-47.391 37.172-101.53 70.969-162.42 101.3 5.1562 32.203 2.4375 65.484-8.1562 99.891-5.6719 18.469-13.641 37.172-23.906 56.203 91.359-51.469 113.44-66.234 176.02-118.41 10.125-29.344 16.266-57.516 18.656-84.938 1.6406-18.234 1.5469-36.234-0.1875-54.047zm123.28-441.19c12.281 12.281 27.188 21.047 43.219 25.875 12.797 3.8438 26.297 5.25 39.75 3.9375 5.7188-38.062 8.2031-77.766 7.4531-119.11-41.766-0.75-81.938 1.8281-120.42 7.6875-1.0781 13.031 0.32812 26.016 4.0781 38.344 4.8281 16.125 13.594 30.984 25.922 43.266zm-541.4 287.02c30.328-60.844 64.078-114.98 101.25-162.37-17.672-1.6875-35.531-1.7344-53.719-0.1875-27.422 2.3906-55.594 8.5312-84.938 18.656-52.172 62.578-66.984 84.703-118.41 176.02 19.031-10.266 37.781-18.234 56.203-23.906 34.312-10.594 67.5-13.312 99.609-8.2031zm265.78-124.22c31.5-31.5 82.547-31.5 114 0 31.5 31.5 31.5 82.547 0 114.05s-82.547 31.5-114 0c-31.5-31.5-31.5-82.547 0-114.05zm251.58 127.08c-80.672 108.19-204.05 195.47-370.22 261.84l-156.28-156.28c11.062-27.656 22.688-54.094 34.875-79.406 0.32812-0.60938 0.60938-1.2188 0.89062-1.8281 35.672-73.547 76.266-137.02 121.78-190.45 0.32812-0.375 0.70312-0.75 1.0312-1.1719 32.016-37.406 66.469-69.891 103.31-97.359 66.141-49.312 140.34-82.734 222.52-100.17-0.23438 14.344 1.7812 28.5 5.8594 42.047 6.5625 21.75 18.375 41.906 34.875 58.406s36.656 28.359 58.406 34.875c13.969 4.2188 28.641 6.1875 43.5 5.8594-17.484 82.594-51 157.18-100.55 223.64zm-518.81 349.13-115.92 115.92c-7.0312 7.0312-7.0312 18.422 0 25.453s18.422 7.0312 25.453 0l115.92-115.92c7.0312-7.0312 7.0312-18.422 0-25.453s-18.422-7.0312-25.453 0zm-120.42-120.42-115.92 115.92c-7.0312 7.0312-7.0312 18.422 0 25.453s18.422 7.0312 25.453 0l115.97-115.92c7.0312-7.0312 7.0312-18.422 0-25.453-7.0781-7.0312-18.469-7.0312-25.5 0z" fill="#600a68" fill-rule="evenodd"/>
</svg>
