<?xml version="1.0" encoding="UTF-8"?>
<svg width="1200pt" height="1200pt" version="1.1" viewBox="0 0 1200 1200" xmlns="http://www.w3.org/2000/svg">
 <path d="m895.97 112.5h-591.98c-48 0-87.047 39.047-87.047 87.047v800.9c0 48 39.047 87.047 87.047 87.047h591.98c48 0 87.047-39.047 87.047-87.047v-800.9c0-48-39.047-87.047-87.047-87.047zm52.266 887.95c0 28.781-23.438 52.219-52.219 52.219h-591.98c-28.781 0-52.219-23.438-52.219-52.219l-0.046875-800.9c0-28.781 23.438-52.219 52.219-52.219h591.98c28.781 0 52.219 23.438 52.219 52.219v800.9zm-87.094-818.29h-522.32c-28.781 0-52.219 23.438-52.219 52.219v198.52c0 16.359 7.4062 31.406 20.391 41.391 9.2812 7.125 20.391 10.875 31.734 10.875 4.5 0 9-0.60938 13.5-1.7812l522.32-138.24c22.875-6.0469 38.859-26.812 38.859-50.484v-60.234c0-28.781-23.438-52.219-52.219-52.219zm17.438 112.45c0 7.875-5.3438 14.812-12.938 16.828l-522.32 138.24c-5.25 1.4062-10.781 0.28125-15.094-3.0469-4.3125-3.3281-6.7969-8.3438-6.7969-13.781v-198.52c0-9.6094 7.8281-17.391 17.391-17.391h522.32c9.6094 0 17.391 7.8281 17.391 17.391v60.234zm14.438 100.31c-12.938-9.9844-29.484-13.312-45.234-9.0938l-158.11 41.859h-0.09375c-0.046875 0-0.046875 0.046875-0.09375 0.046875l-364.03 96.375c-22.875 6.0469-38.859 26.812-38.859 50.484v216.94c0 28.781 23.438 52.219 52.219 52.219h522.32c28.781 0 52.219-23.438 52.219-52.219v-355.22c0-16.359-7.4062-31.406-20.391-41.391zm-36.328 24.562c1.5-0.42188 3-0.60938 4.5-0.60938 3.7969 0 7.5 1.2656 10.594 3.6094 4.3125 3.3281 6.7969 8.3438 6.7969 13.781v145.03c-30.656-2.7656-60.188-12.375-86.156-29.062-35.531-22.922-62.156-56.438-76.359-95.578l140.63-37.219zm-535.26 372.05v-216.94c0-7.875 5.3438-14.812 12.938-16.828l348-92.109c12.281 35.344 33.047 66.891 60.516 92.109-93.609 28.312-160.31 115.36-160.31 216.37 0 11.766 1.2188 23.344 3 34.828h-246.74c-9.6094 0-17.391-7.8281-17.391-17.391zm539.72 17.391h-240.19c-2.1094-11.391-3.5625-23.016-3.5625-34.828 0-94.781 69.375-174.94 162.19-188.95 30.188 18.094 63.938 28.875 99 31.594v174.79c0 9.6094-7.8281 17.391-17.391 17.391zm-253.74 92.906c-9.7031-14.578-25.969-23.25-43.453-23.25h-225.1c-28.781 0-52.219 23.438-52.219 52.219v34.828c0 28.781 23.438 52.219 52.219 52.219h248.34c19.312 0 36.938-10.547 46.031-27.562s8.1094-37.547-2.5781-53.625l-23.203-34.828zm-94.453 46.406c0 12.984-5.1094 25.266-13.781 34.828h-76.922c-8.6719-9.5625-13.781-21.844-13.781-34.828s5.1094-25.266 13.781-34.828h76.922c8.6719 9.5625 13.781 21.844 13.781 34.828zm-191.53 17.391v-34.828c0-9.6094 7.8281-17.391 17.391-17.391h42.188c-4.7812 10.875-7.3594 22.688-7.3594 34.828s2.5781 23.953 7.3594 34.828h-42.188c-9.6094 0-17.391-7.8281-17.391-17.391zm281.11 8.2031c-1.5 2.7656-5.9531 9.1875-15.328 9.1875h-46.781c4.7812-10.875 7.3594-22.688 7.3594-34.828s-2.5781-23.953-7.3594-34.828h23.531c5.8125 0 11.25 2.9062 14.484 7.7344l23.203 34.828c5.2031 7.8281 2.3438 15.094 0.84375 17.859zm258.61-95.25h-126.47c-19.312 0-36.938 10.547-46.031 27.562s-8.1094 37.547 2.5781 53.625l23.203 34.828c9.7031 14.578 25.969 23.25 43.453 23.25h103.22c28.781 0 52.219-23.438 52.219-52.219v-34.828c0-28.781-23.438-52.219-52.219-52.219zm17.438 87.047c0 9.6094-7.8281 17.391-17.391 17.391h-103.22c-5.8125 0-11.25-2.9062-14.484-7.7344l-23.203-34.828c-5.2031-7.8281-2.3438-15.094-0.84375-17.859s5.9531-9.1875 15.328-9.1875h126.47c9.6094 0 17.391 7.8281 17.391 17.391v34.828zm-383.06-696.42c0 9.6094-7.7812 17.391-17.391 17.391h-104.48c-9.6094 0-17.391-7.7812-17.391-17.391s7.7812-17.391 17.391-17.391h104.48c9.6094 0 17.391 7.7812 17.391 17.391zm0 69.656c0 9.6094-7.7812 17.391-17.391 17.391h-104.48c-9.6094 0-17.391-7.7812-17.391-17.391s7.7812-17.391 17.391-17.391h104.48c9.6094 0 17.391 7.7812 17.391 17.391zm-34.781 243.74c-38.391 0-69.656 31.266-69.656 69.656s31.266 69.656 69.656 69.656 69.656-31.266 69.656-69.656-31.266-69.656-69.656-69.656zm0 104.44c-19.219 0-34.828-15.609-34.828-34.828s15.609-34.828 34.828-34.828 34.828 15.609 34.828 34.828-15.609 34.828-34.828 34.828z" fill="#600a68"/>
</svg>
