<svg xmlns="http://www.w3.org/2000/svg" version="1.1" xmlns:xlink="http://www.w3.org/1999/xlink" width="512" height="512" x="0" y="0" viewBox="0 0 510 510" style="enable-background:new 0 0 512 512" xml:space="preserve" fill-rule="evenodd" class=""><g><path fill="#ffffff" d="M29.764 14.624h294.469c3.09 0 5.754 1.106 7.937 3.289l53.434 53.434c2.183 2.182 3.288 4.847 3.288 7.937v404.143c0 6.18-5.045 11.197-11.197 11.197H29.764c-6.18 0-11.225-5.017-11.225-11.197V25.85c0-6.18 5.045-11.226 11.225-11.226z" opacity="1" data-original="#eceff1" class=""></path><g fill="#d1d1d6"><path d="M328.882 15.588v53.434a5.626 5.626 0 0 0 5.613 5.613h53.434c-.539-1.191-1.333-2.296-2.325-3.288L332.17 17.913a11.78 11.78 0 0 0-3.288-2.325zM29.764 14.624h11.197v480H29.764c-6.18 0-11.225-5.017-11.225-11.197V25.85c0-6.18 5.045-11.226 11.225-11.226z" fill="#ebebeb" opacity="1" data-original="#d1d1d6" class=""></path></g><path fill="#b8357b" d="M86.198 111.641a3.512 3.512 0 0 0-3.51-3.511H54.602a3.512 3.512 0 0 0-3.511 3.511v41.586a3.512 3.512 0 0 0 3.511 3.511h28.086a3.512 3.512 0 0 0 3.51-3.511z" opacity="1" data-original="#fe646f" class=""></path><path fill="#b8357b" d="M72.688 156.738a3.512 3.512 0 0 0 3.51-3.511v-41.586a3.512 3.512 0 0 0-3.51-3.511h10a3.512 3.512 0 0 1 3.51 3.511v41.586a3.512 3.512 0 0 1-3.51 3.511z" opacity="1" data-original="#fd4755" class=""></path><path fill="#ffbc50" d="M147.543 88.926a3.512 3.512 0 0 0-3.51-3.511h-28.086a3.512 3.512 0 0 0-3.511 3.511v64.301a3.512 3.512 0 0 0 3.511 3.511h28.086a3.512 3.512 0 0 0 3.51-3.511z" opacity="1" data-original="#ffe177" class=""></path><path fill="#ffbc50" d="M134.033 156.738a3.512 3.512 0 0 0 3.51-3.511V88.926a3.512 3.512 0 0 0-3.51-3.511h10a3.512 3.512 0 0 1 3.51 3.511v64.301a3.512 3.512 0 0 1-3.51 3.511z" opacity="1" data-original="#ffd064" class=""></path><path fill="#5eac29" d="M208.888 63.033a3.512 3.512 0 0 0-3.511-3.511h-28.085a3.512 3.512 0 0 0-3.511 3.511v90.194a3.512 3.512 0 0 0 3.511 3.511h28.085a3.512 3.512 0 0 0 3.511-3.511z" opacity="1" data-original="#6cf5c2" class=""></path><path fill="#5eac29" d="M195.377 156.738a3.512 3.512 0 0 0 3.511-3.511V63.033a3.512 3.512 0 0 0-3.511-3.511h10a3.512 3.512 0 0 1 3.511 3.511v90.194a3.512 3.512 0 0 1-3.511 3.511z" opacity="1" data-original="#00e499" class=""></path><path fill="#374151" d="M393.891 377.196a92.507 92.507 0 0 1-15.683 17.285l42.662 41.822 16.243-16.741z" opacity="1" data-original="#a79ba7" class=""></path><path fill="#ebebeb" d="M394.187 376.916c-.84 2.754-2.412 4.839-4.652 6.223l42.381 42.117 5.197-5.694z" opacity="1" data-original="#837683" class=""></path><path fill="#8c9bb2" d="m474.904 490.602 18.328-18.904c3.221-3.314 3.143-8.666-.171-11.886l-50.783-49.274c-3.314-3.221-8.666-3.127-11.887.187l-18.327 18.888c-3.221 3.313-3.143 8.666.171 11.886l50.783 49.274c3.314 3.221 8.666 3.143 11.886-.171z" opacity="1" data-original="#f1ba84" class=""></path><path fill="#ffbc50" d="m434.763 410.538 50.783 49.274c3.314 3.22 3.392 8.572.171 11.886l-18.327 18.904a8.585 8.585 0 0 1-2.272 1.649c3.189 1.587 7.172 1.027 9.786-1.649l18.328-18.904c3.221-3.314 3.143-8.666-.171-11.886l-50.783-49.274c-2.614-2.536-6.503-3.019-9.615-1.478a8.415 8.415 0 0 1 2.1 1.478z" opacity="1" data-original="#e3a76f" class=""></path><path fill="#ebebeb" d="M324.609 238.196c51.063 0 92.464 41.386 92.464 92.464 0 51.063-41.401 92.465-92.464 92.465-51.078 0-92.464-41.402-92.464-92.465 0-51.078 41.386-92.464 92.464-92.464z" opacity="1" data-original="#d1d1d6" class=""></path><path fill="#b1b1b5" d="M324.609 238.196c51.063 0 92.464 41.386 92.464 92.464 0 51.063-41.401 92.465-92.464 92.465-1.509 0-3.003-.047-4.496-.109 48.978-2.35 87.983-42.802 87.983-92.356 0-49.569-39.005-90.021-87.983-92.355a86.047 86.047 0 0 1 4.496-.109z" opacity="1" data-original="#b1b1b5" class=""></path><path fill="#ffffff" d="M324.609 259.309c39.394 0 71.351 31.942 71.351 71.351 0 39.395-31.957 71.352-71.351 71.352-39.409 0-71.351-31.957-71.351-71.352 0-39.409 31.942-71.351 71.351-71.351z" opacity="1" data-original="#eceff1" class=""></path><path fill="#ebebeb" d="M324.609 259.309c1.618 0 3.221.047 4.823.156-37.169 2.489-66.528 33.404-66.528 71.195 0 37.777 29.359 68.707 66.528 71.181a70.921 70.921 0 0 1-4.823.171c-39.409 0-71.351-31.942-71.351-71.352 0-39.409 31.942-71.351 71.351-71.351z" opacity="1" data-original="#d1d1d6" class=""></path><path fill="#ebebeb" d="M324.609 396.053c-36.015 0-65.396-29.373-65.396-65.389 0-36.015 29.381-65.396 65.396-65.396 36.016 0 65.397 29.381 65.397 65.396 0 36.016-29.381 65.389-65.397 65.389z" opacity="1" data-original="#837683" class=""></path><path fill="#ebebeb" d="M270.845 330.664c0 13.378 4.016 25.813 10.905 36.178a65.75 65.75 0 0 0 9.199 10.999c10.443 10.025 24.206 16.613 39.476 17.957a65.75 65.75 0 0 1-5.816.255 65.75 65.75 0 0 1-10.535-.842c-31.111-5.036-54.861-32.022-54.861-64.547 0-36.116 29.28-65.396 65.396-65.396 1.962 0 3.901.085 5.816.255-33.397 2.943-59.58 30.979-59.58 65.141z" opacity="1" data-original="#685e68" class=""></path><path fill="#4d72ac" d="M324.613 337.542c25.704 0 46.866 19.475 49.546 44.471-12.835 12.38-30.297 19.999-49.546 19.999a71.76 71.76 0 0 1-10.214-.725c-15.169-2.174-28.805-9.127-39.322-19.274 2.671-25.004 23.833-44.471 49.536-44.471z" opacity="1" data-original="#8ac9fe" class=""></path><path fill="#4d72ac" d="M330.951 337.946c-29.656 3.767-41.607 26.21-44.354 53.102a70.906 70.906 0 0 1-11.52-9.035c2.671-25.004 23.833-44.471 49.536-44.471 2.149 0 4.265.134 6.338.404z" opacity="1" data-original="#60b7ff" class=""></path><path fill="#4d72ac" d="M324.613 342.216c-13.88 0-25.198-11.318-25.198-25.19 0-13.88 11.318-25.189 25.198-25.189 13.872 0 25.19 11.309 25.19 25.189 0 13.872-11.318 25.19-25.19 25.19z" opacity="1" data-original="#f6dccd" class=""></path><path fill="#f1cbbc" d="M305.761 317.026c0 12.844 9.607 23.437 22.021 24.996a26.09 26.09 0 0 1-3.169.194c-13.913 0-25.189-11.276-25.189-25.19 0-13.913 11.276-25.189 25.189-25.189 1.071 0 2.133.067 3.169.193-12.414 1.56-22.021 12.153-22.021 24.996z" opacity="1" data-original="#f1cbbc" class=""></path><path fill="#4d72ac" d="M304.272 217.031c30.103 0 54.66-24.558 54.66-54.661s-24.557-54.661-54.66-54.661-54.661 24.558-54.661 54.661 24.558 54.661 54.661 54.661z" opacity="1" data-original="#60b7ff" class=""></path><path fill="#4d72ac" d="M304.272 210.239c26.365 0 47.869-21.504 47.869-47.869s-21.504-47.869-47.869-47.869-47.869 21.504-47.869 47.869 21.504 47.869 47.869 47.869z" opacity="1" data-original="#8ac9fe" class=""></path><path fill="#b8357b" d="M304.272 162.37h54.66c0 20.232-10.994 37.889-27.327 47.34z" opacity="1" data-original="#fd4755" class=""></path><path fill="#b8357b" d="M304.272 162.37h47.869c0 17.714-9.626 33.182-23.931 41.459z" opacity="1" data-original="#fe646f" class=""></path><path fill="#ffbc50" d="M358.932 162.37h-54.66v-54.661c30.187 0 54.66 24.474 54.66 54.661z" opacity="1" data-original="#ffd064" class=""></path><path fill="#ffbc50" d="M352.141 162.37h-47.869v-47.869c26.436 0 47.869 21.433 47.869 47.869z" opacity="1" data-original="#ffe177" class=""></path><path d="M394.165 424.108v61.224c0 9.721-7.948 17.668-17.668 17.668H25.518c-9.778 0-17.704-7.955-17.704-17.668V24.704C7.814 14.934 15.748 7 25.518 7h296.639c4.862 0 9.069 1.766 12.486 5.182l54.339 54.34c3.416 3.416 5.183 7.624 5.183 12.485v182.078c18.389 18.196 29.782 43.449 29.782 71.364 0 18.96-5.257 36.694-14.392 51.821l19.544 18.965c5.799-2.249 12.656-1.099 17.391 3.496l50.737 49.234c6.472 6.281 6.63 16.716.349 23.188l-18.319 18.879c-6.281 6.472-16.714 6.628-23.188.349l-50.738-49.234c-4.899-4.753-6.18-11.887-3.791-17.882zm-16-175.913V83.018h-47.167c-7.044 0-12.851-5.807-12.851-12.852V23H25.518c-.94 0-1.704.763-1.704 1.704v460.628c0 .926.772 1.668 1.704 1.668h350.979c.917 0 1.668-.75 1.668-1.668v-68.63c-15.718 10.208-34.471 16.138-54.609 16.138-52.693 0-95.904-40.597-100.064-92.219H46.85c-4.416 0-8-3.584-8-8 0-4.415 3.584-8 8-8h176.615a99.992 99.992 0 0 1 4.226-22.067H46.85c-4.416 0-8-3.585-8-8 0-4.416 3.584-8 8-8h187.396c16.664-32.363 50.402-54.496 89.31-54.496 20.138 0 38.891 5.929 54.609 16.137zM366.851 67.018l-32.704-32.704v32.704zm33.257 330.38a100.746 100.746 0 0 1-4.931 5.398l16.625 16.132 5.089-5.244zm67.667 89.491 18.319-18.878a.401.401 0 0 0-.01-.564l-50.737-49.234a.401.401 0 0 0-.565.008L416.464 437.1a.4.4 0 0 0 .009.564l50.736 49.232a.4.4 0 0 0 .566-.007zM323.556 248.058c-46.608 0-84.392 37.783-84.392 84.391 0 46.607 37.784 84.391 84.392 84.391s84.391-37.784 84.391-84.391c0-46.608-37.783-84.391-84.391-84.391zm0 11.615c40.197 0 72.775 32.579 72.775 72.776s-32.578 72.775-72.775 72.775-72.776-32.578-72.776-72.775 32.579-72.776 72.776-72.776zm48.495 102.318c5.254-8.606 8.28-18.72 8.28-29.542 0-31.36-25.416-56.776-56.775-56.776-31.36 0-56.776 25.416-56.776 56.776 0 10.822 3.027 20.936 8.28 29.542a53.462 53.462 0 0 1 25.215-25.935c-4.726-5.428-7.595-12.509-7.595-20.23 0-16.987 13.889-30.876 30.876-30.876s30.876 13.889 30.876 30.876c0 7.721-2.87 14.802-7.595 20.23a53.46 53.46 0 0 1 25.214 25.935zm-84.877 14.049c9.852 8.231 22.538 13.184 36.382 13.184s26.529-4.953 36.381-13.184c-3.618-16.77-18.538-29.338-36.381-29.338-17.844 0-32.763 12.568-36.382 29.338zm36.382-45.338c8.184 0 14.876-6.692 14.876-14.876s-6.692-14.876-14.876-14.876c-8.185 0-14.876 6.692-14.876 14.876s6.691 14.876 14.876 14.876zM103.479 433.107c-4.416 0-8-3.584-8-8 0-4.415 3.584-8 8-8h103.255c4.416 0 8 3.585 8 8 0 4.416-3.584 8-8 8zm0-43.924c-4.416 0-8-3.585-8-8s3.584-8 8-8h103.255c4.416 0 8 3.585 8 8s-3.584 8-8 8zM46.85 264.486c-4.416 0-8-3.585-8-8 0-4.416 3.584-8 8-8h195.021c4.416 0 8 3.584 8 8 0 4.415-3.584 8-8 8zm14.803 104.197c6.899 0 12.5 5.601 12.5 12.5s-5.601 12.5-12.5 12.5-12.5-5.601-12.5-12.5 5.601-12.5 12.5-12.5zm0 43.924c6.899 0 12.5 5.601 12.5 12.5s-5.601 12.5-12.5 12.5-12.5-5.601-12.5-12.5 5.601-12.5 12.5-12.5zm303.395-247.382c-.531 33.866-28.157 61.193-62.179 61.193-34.354 0-62.186-27.863-62.186-62.187 0-34.118 27.454-61.831 61.482-62.209.232-.02.467-.031.704-.031 34.381 0 62.24 27.86 62.24 62.24 0 .337-.021.669-.061.994zm-70.179-46.516c-21.7 3.79-38.186 22.734-38.186 45.522 0 25.493 20.671 46.187 46.186 46.187 4.539 0 8.924-.655 13.066-1.875l-20.159-40.61a7.964 7.964 0 0 1-.907-3.702v-45.522zm35.393 82.71c9.361-6.908 16.019-17.264 18.103-29.188h-32.593zm18.158-45.188c-3.335-19.129-18.421-34.216-37.551-37.55v37.55zM154.141 87.277v71.322a8 8 0 0 1-8 8h-35.107a8 8 0 0 1-8-8V87.277a8 8 0 0 1 8-8h35.107a8 8 0 0 1 8 8zm-16 8h-19.107v55.322h19.107zm77.345-33.893v97.215a8 8 0 0 1-8 8h-35.107a8 8 0 0 1-8-8V61.384a8 8 0 0 1 8-8h35.107a8 8 0 0 1 8 8zm-16 8-19.107-.001v81.216h19.107zm-106.69 40.607v48.608a8 8 0 0 1-8 8H49.689a8 8 0 0 1-8-8v-48.608a8 8 0 0 1 8-8h35.107a8 8 0 0 1 8 8zm-16 8H57.689v32.608h19.107zM46.85 226.418c-4.416 0-8-3.585-8-8 0-4.416 3.584-8 8-8h195.021c4.416 0 8 3.584 8 8 0 4.415-3.584 8-8 8z" fill="#000000" opacity="1" data-original="#000000" class=""></path></g></svg>