<?xml version="1.0" encoding="UTF-8"?>
<svg id="Layer_1" xmlns="http://www.w3.org/2000/svg" version="1.1" viewBox="0 0 440.6 447.7">
  <!-- Generator: Adobe Illustrator 30.1.0, SVG Export Plug-In . SVG Version: 2.1.1 Build 136)  -->
  <defs>
    <style>
      .st0 {
        fill: #4dadb3;
      }

      .st1 {
        fill: #ebebeb;
      }

      .st2 {
        fill: #ffbc50;
      }

      .st3 {
        fill: #b8357b;
      }

      .st4 {
        fill: #4d72ac;
      }
    </style>
  </defs>
  <path class="st0" d="M5,28.6v102.5c0,5.1,4.1,9.2,9.2,9.2h104.6c5.1,0,9.2-4.1,9.2-9.2V28.6H5Z"/>
  <path class="st4" d="M118.8,5H14.2c-5.1,0-9.2,4.1-9.2,9.2v14.4h123v-14.4c0-5.1-4.1-9.2-9.2-9.2Z"/>
  <path class="st3" d="M30.6,5H14.2c-5.1,0-9.2,4.1-9.2,9.2v14.4h25.6V5Z"/>
  <path d="M118.8,145.3H14.2c-7.9,0-14.2-6.4-14.2-14.2V28.6c0-2.8,2.2-5,5-5s5,2.2,5,5v102.5c0,2.3,1.9,4.2,4.2,4.2h104.6c2.3,0,4.2-1.9,4.2-4.2V28.6c0-2.8,2.2-5,5-5s5,2.2,5,5v102.5c0,7.9-6.4,14.2-14.2,14.2Z"/>
  <path d="M128,33.6H5C2.2,33.6,0,31.3,0,28.6H0v-14.4C0,6.4,6.4,0,14.2,0h104.6c7.8,0,14.2,6.4,14.2,14.2v14.4c0,2.8-2.2,5-5,5h0ZM10,23.6h113v-9.4c0-2.3-1.9-4.2-4.2-4.2H14.2c-2.3,0-4.2,1.9-4.2,4.2v9.4Z"/>
  <path d="M30.6,32.7c-2.8,0-5-2.2-5-5V6c0-2.8,2.2-5,5-5s5,2.2,5,5v21.7c0,2.8-2.2,5-5,5Z"/>
  <path class="st1" d="M101.7,72.7H31.4c-2.1,0-3.8-1.7-3.8-3.8h0v-14.9c0-2.1,1.7-3.8,3.8-3.8h70.3c2.1,0,3.8,1.7,3.8,3.8h0v14.9c0,2.1-1.7,3.8-3.8,3.8h0ZM101.7,115.7H31.4c-2.1,0-3.8-1.7-3.8-3.8h0v-14.9c0-2.1,1.7-3.8,3.8-3.8h70.3c2.1,0,3.8,1.7,3.8,3.8h0v14.9c0,2.1-1.7,3.8-3.8,3.8h0Z"/>
  <path d="M66.5,186c-1.3,0-2.6-.5-3.5-1.5l-17-16.9c-2-1.9-2-5.1,0-7.1,0,0,0,0,0,0,1.9-2,5.1-2,7.1,0,0,0,0,0,0,0l13.4,13.4,13.4-13.4c1.9-2,5.1-2,7.1,0,0,0,0,0,0,0,2,2,2,5.1,0,7.1l-16.9,16.9c-.9.9-2.2,1.5-3.5,1.5Z"/>
  <path class="st0" d="M104,380.9H29.1c-7.3,0-13.3,6-13.3,13.3v35.3c0,7.3,6,13.3,13.3,13.3h74.9c7.3,0,13.3-6,13.3-13.3v-35.3c0-7.3-6-13.3-13.3-13.3h0ZM104,204.5H29.1c-7.3,0-13.3,6-13.3,13.3v35.3c0,7.3,6,13.3,13.3,13.3h74.9c7.3,0,13.3-6,13.3-13.3v-35.3c0-7.3-6-13.3-13.3-13.3h0ZM104,292.7H29.1c-7.3,0-13.3,6-13.3,13.3v35.3c0,7.3,6,13.3,13.3,13.3h74.9c7.3,0,13.3-6,13.3-13.3v-35.3c0-7.3-6-13.3-13.3-13.3h0Z"/>
  <path d="M104,271.4H29.1c-10.1,0-18.3-8.2-18.3-18.3v-35.3c0-10.1,8.2-18.3,18.3-18.3h74.9c10.1,0,18.3,8.2,18.3,18.3v35.3c0,10.1-8.2,18.3-18.3,18.3ZM29.1,209.5c-4.6,0-8.3,3.7-8.3,8.3v35.3c0,4.6,3.7,8.3,8.3,8.3h74.9c4.6,0,8.3-3.7,8.3-8.3v-35.3c0-4.6-3.7-8.3-8.3-8.3H29.1ZM104,359.6H29.1c-10.1,0-18.3-8.2-18.3-18.3v-35.3c0-10.1,8.2-18.3,18.3-18.3h74.9c10.1,0,18.3,8.2,18.3,18.3v35.3c0,10.1-8.2,18.3-18.3,18.3ZM29.1,297.7c-4.6,0-8.3,3.7-8.3,8.3v35.3c0,4.6,3.7,8.3,8.3,8.3h74.9c4.6,0,8.3-3.7,8.3-8.3v-35.3c0-4.6-3.7-8.3-8.3-8.3H29.1ZM104,447.7H29.1c-10.1,0-18.3-8.2-18.3-18.3v-35.3c0-10.1,8.2-18.3,18.3-18.3h74.9c10.1,0,18.3,8.2,18.3,18.3v35.3c0,10.1-8.2,18.3-18.3,18.3ZM29.1,385.9c-4.6,0-8.3,3.7-8.3,8.3v35.3c0,4.6,3.7,8.3,8.3,8.3h74.9c4.6,0,8.3-3.7,8.3-8.3v-35.3c0-4.6-3.7-8.3-8.3-8.3H29.1Z"/>
  <path d="M68.7,232.2h-26.3c-2.8,0-5-2.2-5-5s2.2-5,5-5h26.3c2.8,0,5,2.2,5,5,0,2.8-2.2,5-5,5h0ZM68.7,320.4h-26.3c-2.8,0-5-2.2-5-5s2.2-5,5-5h26.3c2.8,0,5,2.2,5,5s-2.2,5-5,5c0,0,0,0,0,0ZM68.7,408.6h-26.3c-2.8,0-5-2.2-5-5s2.2-5,5-5h26.3c2.8,0,5,2.2,5,5,0,2.8-2.2,5-5,5,0,0,0,0,0,0ZM89.2,250.7h-46.8c-2.8,0-5-2.2-5-5s2.2-5,5-5h46.8c2.8,0,5,2.2,5,5s-2.2,5-5,5h0ZM89.2,338.9h-46.8c-2.8,0-5-2.2-5-5s2.2-5,5-5h46.8c2.8,0,5,2.2,5,5s-2.2,5-5,5h0ZM89.2,427.1h-46.8c-2.8,0-5-2.2-5-5s2.2-5,5-5h46.8c2.8,0,5,2.2,5,5s-2.2,5-5,5h0ZM101.7,77.7H31.4c-4.9,0-8.8-4-8.8-8.8v-14.9c0-4.9,4-8.8,8.8-8.8h70.3c4.9,0,8.8,4,8.8,8.8v14.9c0,4.9-4,8.8-8.8,8.8h0ZM32.6,67.7h67.9v-12.6H32.6v12.6ZM101.7,120.7H31.4c-4.9,0-8.8-4-8.8-8.8v-14.9c0-4.9,4-8.8,8.8-8.8h70.3c4.9,0,8.8,4,8.8,8.8v14.9c0,4.9-4,8.8-8.8,8.8h0ZM32.6,110.7h67.9v-12.6H32.6v12.6Z"/>
  <path class="st2" d="M158.8,28.6v102.5c0,5.1,4.1,9.2,9.2,9.2h104.6c5.1,0,9.2-4.1,9.2-9.2V28.6h-123Z"/>
  <path class="st4" d="M272.6,5h-104.6c-5.1,0-9.2,4.1-9.2,9.2v14.4h123v-14.4c0-5.1-4.1-9.2-9.2-9.2Z"/>
  <path class="st3" d="M184.4,5h-16.4c-5.1,0-9.2,4.1-9.2,9.2v14.4h25.6V5Z"/>
  <path d="M272.6,145.3h-104.6c-7.9,0-14.2-6.4-14.2-14.2V28.6c0-2.8,2.2-5,5-5s5,2.2,5,5v102.5c0,2.3,1.9,4.2,4.2,4.2h104.6c2.3,0,4.2-1.9,4.2-4.2V28.6c0-2.8,2.2-5,5-5s5,2.2,5,5v102.5c0,7.8-6.4,14.2-14.2,14.2Z"/>
  <path d="M281.8,33.6h-123c-2.8,0-5-2.2-5-5h0v-14.4c0-7.9,6.4-14.2,14.2-14.2h104.6c7.9,0,14.2,6.4,14.2,14.2v14.4c0,2.8-2.2,5-5,5h0ZM163.8,23.6h113v-9.4c0-2.3-1.9-4.2-4.2-4.2h-104.6c-2.3,0-4.2,1.9-4.2,4.2v9.4Z"/>
  <path d="M184.4,32.5c-2.8,0-5-2.2-5-5V6.4c0-2.8,2.2-5,5-5s5,2.2,5,5h0v21.1c0,2.8-2.2,5-5,5Z"/>
  <path class="st1" d="M255.4,72.7h-70.3c-2.1,0-3.8-1.7-3.8-3.8h0v-14.9c0-2.1,1.7-3.8,3.8-3.8h70.3c2.1,0,3.8,1.7,3.8,3.8h0v14.9c0,2.1-1.7,3.8-3.8,3.8h0ZM255.4,115.7h-70.3c-2.1,0-3.8-1.7-3.8-3.8h0v-14.9c0-2.1,1.7-3.8,3.8-3.8h70.3c2.1,0,3.8,1.7,3.8,3.8h0v14.9c0,2.1-1.7,3.8-3.8,3.8h0Z"/>
  <path d="M220.3,186c-1.3,0-2.6-.5-3.5-1.5l-16.9-16.9c-2-1.9-2-5.1,0-7.1,0,0,0,0,0,0,1.9-2,5.1-2,7.1,0,0,0,0,0,0,0l13.4,13.4,13.4-13.4c2-2,5.1-2,7.1,0s2,5.1,0,7.1l-17,16.9c-.9.9-2.2,1.5-3.5,1.5Z"/>
  <path class="st2" d="M257.8,204.5h-74.9c-7.3,0-13.3,6-13.3,13.3v35.3c0,7.3,6,13.3,13.3,13.3h74.9c7.3,0,13.3-6,13.3-13.3v-35.3c0-7.3-6-13.3-13.3-13.3h0Z"/>
  <path d="M257.8,271.4h-74.9c-10.1,0-18.3-8.2-18.3-18.3v-35.3c0-10.1,8.2-18.3,18.3-18.3h74.9c10.1,0,18.3,8.2,18.3,18.3v35.3c0,10.1-8.2,18.3-18.3,18.3ZM182.8,209.5c-4.6,0-8.3,3.7-8.3,8.3v35.3c0,4.6,3.7,8.3,8.3,8.3h74.9c4.6,0,8.3-3.7,8.3-8.3v-35.3c0-4.6-3.7-8.3-8.3-8.3h-74.9Z"/>
  <path d="M222.5,232.2h-26.3c-2.8,0-5-2.2-5-5s2.2-5,5-5h26.3c2.8,0,5,2.2,5,5s-2.2,5-5,5h0ZM243,250.7h-46.8c-2.8,0-5-2.2-5-5s2.2-5,5-5h46.8c2.8,0,5,2.2,5,5s-2.2,5-5,5ZM255.4,77.7h-70.3c-4.9,0-8.8-4-8.8-8.8v-14.9c0-4.9,4-8.8,8.8-8.8h70.3c4.9,0,8.8,4,8.8,8.8v14.9c0,4.9-4,8.8-8.8,8.8h0ZM186.3,67.7h67.9v-12.6h-67.9v12.6ZM255.4,120.7h-70.3c-4.9,0-8.8-4-8.8-8.8v-14.9c0-4.9,4-8.8,8.8-8.8h70.3c4.9,0,8.8,4,8.8,8.8v14.9c0,4.9-4,8.8-8.8,8.8h0ZM186.3,110.7h67.9v-12.6h-67.9v12.6Z"/>
  <path class="st3" d="M312.6,28.6v102.5c0,5.1,4.1,9.2,9.2,9.2h104.6c5.1,0,9.2-4.1,9.2-9.2V28.6h-123Z"/>
  <path class="st4" d="M426.4,5h-104.6c-5.1,0-9.2,4.1-9.2,9.2v14.4h123v-14.4c0-5.1-4.1-9.2-9.2-9.2h0Z"/>
  <path class="st3" d="M338.2,5h-16.4c-5.1,0-9.2,4.1-9.2,9.2v14.4h25.6V5Z"/>
  <path d="M426.4,145.3h-104.6c-7.9,0-14.2-6.4-14.2-14.2V28.6c0-2.8,2.2-5,5-5s5,2.2,5,5v102.5c0,2.3,1.9,4.2,4.2,4.2h104.6c2.3,0,4.2-1.9,4.2-4.2V28.6c0-2.8,2.2-5,5-5s5,2.2,5,5v102.5c0,7.9-6.4,14.2-14.2,14.2h0Z"/>
  <path d="M435.6,33.6h-123c-2.8,0-5-2.2-5-5h0v-14.4c0-7.9,6.4-14.2,14.2-14.2h104.6c7.9,0,14.2,6.4,14.2,14.2v14.4c0,2.8-2.2,5-5,5h0ZM317.6,23.6h113v-9.4c0-2.3-1.9-4.2-4.2-4.2h-104.6c-2.3,0-4.2,1.9-4.2,4.2v9.4h0Z"/>
  <path d="M338.2,32.3c-2.8,0-5-2.2-5-5V5.9c0-2.8,2.2-5,5-5s5,2.2,5,5v21.4c0,2.8-2.2,5-5,5Z"/>
  <path class="st1" d="M409.2,72.7h-70.3c-2.1,0-3.8-1.7-3.8-3.8h0v-14.9c0-2.1,1.7-3.8,3.8-3.8h70.3c2.1,0,3.8,1.7,3.8,3.8h0v14.9c0,2.1-1.7,3.8-3.8,3.8h0ZM409.2,115.7h-70.3c-2.1,0-3.8-1.7-3.8-3.8h0v-14.9c0-2.1,1.7-3.8,3.8-3.8h70.3c2.1,0,3.8,1.7,3.8,3.8h0v14.9c0,2.1-1.7,3.8-3.8,3.8h0Z"/>
  <path d="M374.1,186c-1.3,0-2.6-.5-3.5-1.5l-17-16.9c-2-2-2-5.1,0-7.1s5.1-2,7.1,0l13.4,13.4,13.4-13.4c2-2,5.1-2,7.1,0s2,5.1,0,7.1l-17,16.9c-.9.9-2.2,1.5-3.5,1.5h0Z"/>
  <path class="st3" d="M411.5,204.5h-74.9c-7.3,0-13.3,6-13.3,13.3v35.3c0,7.3,6,13.3,13.3,13.3h74.9c7.3,0,13.3-6,13.3-13.3v-35.3c0-7.3-6-13.3-13.3-13.3ZM411.5,292.7h-74.9c-7.3,0-13.3,6-13.3,13.3v35.3c0,7.3,6,13.3,13.3,13.3h74.9c7.3,0,13.3-6,13.3-13.3v-35.3c0-7.3-6-13.3-13.3-13.3Z"/>
  <path d="M411.5,271.4h-74.9c-10.1,0-18.3-8.2-18.3-18.3v-35.3c0-10.1,8.2-18.3,18.3-18.3h74.9c10.1,0,18.3,8.2,18.3,18.3v35.3c0,10.1-8.2,18.3-18.3,18.3ZM336.6,209.5c-4.6,0-8.3,3.7-8.3,8.3v35.3c0,4.6,3.7,8.3,8.3,8.3h74.9c4.6,0,8.3-3.7,8.3-8.3v-35.3c0-4.6-3.7-8.3-8.3-8.3h-74.9ZM411.5,359.6h-74.9c-10.1,0-18.3-8.2-18.3-18.3v-35.3c0-10.1,8.2-18.3,18.3-18.3h74.9c10.1,0,18.3,8.2,18.3,18.3v35.3c0,10.1-8.2,18.3-18.3,18.3ZM336.6,297.7c-4.6,0-8.3,3.7-8.3,8.3v35.3c0,4.6,3.7,8.3,8.3,8.3h74.9c4.6,0,8.3-3.7,8.3-8.3v-35.3c0-4.6-3.7-8.3-8.3-8.3h-74.9Z"/>
  <path d="M376.3,232.2h-26.3c-2.8,0-5-2.2-5-5s2.2-5,5-5h26.3c2.8,0,5,2.2,5,5s-2.2,5-5,5h0ZM376.3,320.4h-26.3c-2.8,0-5-2.2-5-5s2.2-5,5-5h26.3c2.8,0,5,2.2,5,5s-2.2,5-5,5h0ZM396.8,250.7h-46.8c-2.8,0-5-2.2-5-5s2.2-5,5-5h46.8c2.8,0,5,2.2,5,5s-2.2,5-5,5h0ZM396.8,338.9h-46.8c-2.8,0-5-2.2-5-5s2.2-5,5-5h46.8c2.8,0,5,2.2,5,5s-2.2,5-5,5h0ZM409.2,77.7h-70.3c-4.9,0-8.8-4-8.8-8.8v-14.9c0-4.9,4-8.8,8.8-8.8h70.3c4.9,0,8.8,4,8.8,8.8v14.9c0,4.9-4,8.8-8.8,8.8h0ZM340.1,67.7h67.9v-12.6h-67.9v12.6ZM409.2,120.7h-70.3c-4.9,0-8.8-4-8.8-8.8v-14.9c0-4.9,4-8.8,8.8-8.8h70.3c4.9,0,8.8,4,8.8,8.8v14.9c0,4.9-4,8.8-8.8,8.8h0ZM340.1,110.7h67.9v-12.6h-67.9v12.6Z"/>
</svg>