<svg xmlns="http://www.w3.org/2000/svg" version="1.1" xmlns:xlink="http://www.w3.org/1999/xlink" width="512" height="512" x="0" y="0" viewBox="0 0 64 64" style="enable-background:new 0 0 512 512" xml:space="preserve" class=""><g><path fill="#ebebeb" fill-rule="evenodd" d="m41.514 38.981 9.034-26.251.643-1.875c.106-.307.236-.597.391-.87V1H2.453v62h49.13V42.441l-.005.004-8.215 7.232z" clip-rule="evenodd" opacity="1" data-original="#e6e6e6" class=""></path><path fill="#4d72ac" fill-rule="evenodd" d="M24.28 47.104V38.83H9.639v10.103l4.616-4.579 3.401 2.926 2.947-3.279z" clip-rule="evenodd" opacity="1" data-original="#bde5f8" class=""></path><path fill="#5eac29" fill-rule="evenodd" d="M24.28 53.074v-5.97L20.603 44l-2.947 3.28-3.401-2.927-4.616 4.579v4.14zM24.466 30.17v-4.596l-3.679-3.099-2.943 3.28-3.405-2.93-4.616 4.582v2.762z" clip-rule="evenodd" opacity="1" data-original="#59a318" class=""></path><path fill="#4d72ac" fill-rule="evenodd" d="M24.466 25.574v-9.645H9.823v11.478l4.616-4.583 3.405 2.93 2.943-3.279z" clip-rule="evenodd" opacity="1" data-original="#bde5f8" class=""></path><path fill="#b8357b" fill-rule="evenodd" d="m43.363 49.677 8.215-7.232-5.032-1.732-5.032-1.732zM61.26 14.319c.942-2.741-.508-5.806-3.3-6.765-2.463-.849-5.146.232-6.378 2.43a5.082 5.082 0 0 0-.39.87l-.644 1.876 5.033 1.732 5.032 1.732z" clip-rule="evenodd" opacity="1" data-original="#ffd557" class=""></path><path fill="#ffbc50" fill-rule="evenodd" d="m55.58 14.462-5.032-1.732-9.034 26.251 5.032 1.732 5.032 1.732.004-.004 9.03-26.247z" clip-rule="evenodd" opacity="1" data-original="#f54a34" class=""></path><g fill="#333"><path d="M24.466 14.93H9.823a1 1 0 0 0-1 1v14.239a1 1 0 0 0 1 1h14.643a1 1 0 0 0 1-1v-14.24a1 1 0 0 0-1-1zm-1 2v6.494l-2.035-1.713a.998.998 0 0 0-1.388.096l-2.29 2.55-2.662-2.29a1 1 0 0 0-1.357.048l-2.911 2.89V16.93h12.643zM10.823 29.168v-1.346l3.664-3.638 2.705 2.327a.999.999 0 0 0 1.397-.09l2.295-2.558 2.582 2.175v3.13zM24.28 37.83H9.639a1 1 0 0 0-1 1v14.244a1 1 0 0 0 1 1H24.28a1 1 0 0 0 1-1V38.83a1 1 0 0 0-1-1zm-1 2v5.122l-2.033-1.716a1.001 1.001 0 0 0-1.389.097l-2.293 2.55-2.659-2.287a1 1 0 0 0-1.356.048l-2.912 2.888V39.83zM10.639 52.074v-2.725l3.664-3.634 2.701 2.323a.999.999 0 0 0 1.396-.09l2.3-2.558 2.582 2.178v4.506zM38.781 44.586h-8.274a1 1 0 0 0 0 2h8.274a1 1 0 1 0 0-2zM30.507 41.301h6.454a1 1 0 1 0 0-2h-6.454a1 1 0 0 0 0 2zM41.993 21.736H30.507a1 1 0 0 0 0 2h11.486a1 1 0 1 0 0-2zM44.68 16.451H30.507a1 1 0 0 0 0 2H44.68a1 1 0 1 0 0-2zM39.504 27.677h-8.997a1 1 0 0 0 0 2h8.997a1 1 0 1 0 0-2zM9.87 10.43h34.81a1 1 0 1 0 0-2H9.87a1 1 0 0 0 0 2z" fill="#000000" opacity="1" data-original="#333333" class=""></path><path d="M58.285 6.609a6.282 6.282 0 0 0-4.829.3 6.398 6.398 0 0 0-.874.536V1a1 1 0 0 0-1-1H2.453a1 1 0 0 0-1 1v62a1 1 0 0 0 1 1h49.129a1 1 0 0 0 1-1V42.6l8.976-26.079.648-1.877c1.134-3.3-.626-6.904-3.92-8.035zm-3.952 2.098a4.298 4.298 0 0 1 3.302-.207 4.327 4.327 0 0 1 2.68 5.493l-.32.93-4.087-1.406h-.002l-.002-.001-4.086-1.406.319-.93c.067-.196.163-.377.256-.559.055-.08.1-.162.13-.257a4.3 4.3 0 0 1 1.81-1.658zm-10.29 39.038-1.256-7.268 3.43 1.18.004.002h.004l3.401 1.172zm-1.259-9.384L51.168 14l3.142 1.081-8.384 24.36zM3.454 62V2h47.128v7.795c-.12.24-.248.477-.337.735l-.643 1.875-.001.004-9.033 26.247c-.005.016-.001.032-.006.049-.019.064-.021.13-.027.199-.005.067-.013.131-.005.197.002.017-.005.033-.002.05l1.806 10.443-.32.933H30.508a1 1 0 0 0 0 2h12.25a.99.99 0 0 0 .98-.893c.01-.026.029-.046.038-.073l.449-1.31 6.358-5.597V62zm47.504-20.826-3.141-1.08 8.384-24.36 3.14 1.08z" fill="#000000" opacity="1" data-original="#333333" class=""></path></g></g></svg>